<svg xmlns="http://www.w3.org/2000/svg" width="1090" height="340" viewBox="0 0 1090 340" font-family="Georgia, 'Times New Roman', serif"><rect width="1090" height="340" fill="#ffffff"/><defs><marker id="ah-A" viewBox="0 0 10 10" refX="9" refY="5" markerWidth="7" markerHeight="7" orient="auto"><path d="M0,0 L10,5 L0,10 z" fill="#3f6fd0"/></marker><marker id="ah-B" viewBox="0 0 10 10" refX="9" refY="5" markerWidth="7" markerHeight="7" orient="auto"><path d="M0,0 L10,5 L0,10 z" fill="#d98a3a"/></marker><marker id="ah-C" viewBox="0 0 10 10" refX="9" refY="5" markerWidth="7" markerHeight="7" orient="auto"><path d="M0,0 L10,5 L0,10 z" fill="#c9b23a"/></marker><marker id="ah-D" viewBox="0 0 10 10" refX="9" refY="5" markerWidth="7" markerHeight="7" orient="auto"><path d="M0,0 L10,5 L0,10 z" fill="#7b8290"/></marker><marker id="ah-E" viewBox="0 0 10 10" refX="9" refY="5" markerWidth="7" markerHeight="7" orient="auto"><path d="M0,0 L10,5 L0,10 z" fill="#b0b6c0"/></marker><marker id="ah-S" viewBox="0 0 10 10" refX="9" refY="5" markerWidth="7" markerHeight="7" orient="auto"><path d="M0,0 L10,5 L0,10 z" fill="#1e8a86"/></marker><marker id="ah-G" viewBox="0 0 10 10" refX="9" refY="5" markerWidth="7" markerHeight="7" orient="auto"><path d="M0,0 L10,5 L0,10 z" fill="#8a9098"/></marker></defs><line x1="85" y1="36" x2="165" y2="36" stroke="#3f6fd0" stroke-width="1.3" stroke-dasharray="5 4" marker-end="url(#ah-A)"/><line x1="85" y1="36" x2="165" y2="74" stroke="#3f6fd0" stroke-width="1.3" stroke-dasharray="5 4" marker-end="url(#ah-A)"/><line x1="85" y1="74" x2="165" y2="112" stroke="#d98a3a" stroke-width="1.3" stroke-dasharray="5 4" marker-end="url(#ah-B)"/><line x1="85" y1="74" x2="165" y2="150" stroke="#d98a3a" stroke-width="1.3" stroke-dasharray="5 4" marker-end="url(#ah-B)"/><line x1="85" y1="112" x2="165" y2="188" stroke="#c9b23a" stroke-width="1.3" stroke-dasharray="5 4" marker-end="url(#ah-C)"/><line x1="85" y1="150" x2="165" y2="226" stroke="#7b8290" stroke-width="1.3" stroke-dasharray="5 4" marker-end="url(#ah-D)"/><line x1="195" y1="36" x2="275" y2="36" stroke="#3f6fd0" stroke-width="1.3" stroke-dasharray="5 4" marker-end="url(#ah-A)"/><line x1="195" y1="74" x2="275" y2="74" stroke="#3f6fd0" stroke-width="1.3" stroke-dasharray="5 4" marker-end="url(#ah-A)"/><line x1="195" y1="74" x2="275" y2="112" stroke="#3f6fd0" stroke-width="1.3" stroke-dasharray="5 4" marker-end="url(#ah-A)"/><line x1="195" y1="112" x2="275" y2="150" stroke="#d98a3a" stroke-width="1.3" stroke-dasharray="5 4" marker-end="url(#ah-B)"/><line x1="195" y1="150" x2="275" y2="188" stroke="#d98a3a" stroke-width="1.3" stroke-dasharray="5 4" marker-end="url(#ah-B)"/><line x1="195" y1="150" x2="275" y2="226" stroke="#d98a3a" stroke-width="1.3" stroke-dasharray="5 4" marker-end="url(#ah-B)"/><circle cx="70" cy="36" r="13" fill="#9dbcf0" stroke="#3f6fd0" stroke-width="1.3"/><text x="70" y="40.5" text-anchor="middle" font-size="12" fill="#2b2f36">A</text><circle cx="70" cy="74" r="13" fill="#f6c48a" stroke="#d98a3a" stroke-width="1.3"/><text x="70" y="78.5" text-anchor="middle" font-size="12" fill="#2b2f36">B</text><circle cx="70" cy="112" r="13" fill="#f7e39a" stroke="#c9b23a" stroke-width="1.3"/><text x="70" y="116.5" text-anchor="middle" font-size="12" fill="#2b2f36">C</text><circle cx="70" cy="150" r="13" fill="#d5d8de" stroke="#7b8290" stroke-width="1.3"/><text x="70" y="154.5" text-anchor="middle" font-size="12" fill="#2b2f36">D</text><circle cx="70" cy="188" r="13" fill="#eceef1" stroke="#b0b6c0" stroke-width="1.3"/><text x="70" y="192.5" text-anchor="middle" font-size="12" fill="#2b2f36">E</text><circle cx="70" cy="226" r="13" fill="#bfe6e0" stroke="#1e8a86" stroke-width="1.3"/><circle cx="70" cy="226" r="17" fill="none" stroke="#1e8a86" stroke-width="1.6"/><polygon points="70.0,219.5 71.7,223.6 76.2,224.0 72.8,226.9 73.8,231.3 70.0,228.9 66.2,231.3 67.2,226.9 63.8,224.0 68.3,223.6" fill="#1e5f5c"/><circle cx="180" cy="36" r="13" fill="#9dbcf0" stroke="#3f6fd0" stroke-width="1.3"/><text x="180" y="40.5" text-anchor="middle" font-size="12" fill="#2b2f36">A</text><circle cx="180" cy="74" r="13" fill="#9dbcf0" stroke="#3f6fd0" stroke-width="1.3"/><text x="180" y="78.5" text-anchor="middle" font-size="12" fill="#2b2f36">A</text><circle cx="180" cy="112" r="13" fill="#f6c48a" stroke="#d98a3a" stroke-width="1.3"/><text x="180" y="116.5" text-anchor="middle" font-size="12" fill="#2b2f36">B</text><circle cx="180" cy="150" r="13" fill="#f6c48a" stroke="#d98a3a" stroke-width="1.3"/><text x="180" y="154.5" text-anchor="middle" font-size="12" fill="#2b2f36">B</text><circle cx="180" cy="188" r="13" fill="#f7e39a" stroke="#c9b23a" stroke-width="1.3"/><text x="180" y="192.5" text-anchor="middle" font-size="12" fill="#2b2f36">C</text><circle cx="180" cy="226" r="13" fill="#d5d8de" stroke="#7b8290" stroke-width="1.3"/><text x="180" y="230.5" text-anchor="middle" font-size="12" fill="#2b2f36">D</text><circle cx="290" cy="36" r="13" fill="#9dbcf0" stroke="#3f6fd0" stroke-width="1.3"/><text x="290" y="40.5" text-anchor="middle" font-size="12" fill="#2b2f36">A</text><circle cx="290" cy="74" r="13" fill="#9dbcf0" stroke="#3f6fd0" stroke-width="1.3"/><text x="290" y="78.5" text-anchor="middle" font-size="12" fill="#2b2f36">A</text><circle cx="290" cy="112" r="13" fill="#9dbcf0" stroke="#3f6fd0" stroke-width="1.3"/><text x="290" y="116.5" text-anchor="middle" font-size="12" fill="#2b2f36">A</text><circle cx="290" cy="150" r="13" fill="#f6c48a" stroke="#d98a3a" stroke-width="1.3"/><text x="290" y="154.5" text-anchor="middle" font-size="12" fill="#2b2f36">B</text><circle cx="290" cy="188" r="13" fill="#f6c48a" stroke="#d98a3a" stroke-width="1.3"/><text x="290" y="192.5" text-anchor="middle" font-size="12" fill="#2b2f36">B</text><circle cx="290" cy="226" r="13" fill="#f6c48a" stroke="#d98a3a" stroke-width="1.3"/><text x="290" y="230.5" text-anchor="middle" font-size="12" fill="#2b2f36">B</text><line x1="85" y1="188" x2="112" y2="188" stroke="#8a9098" stroke-width="1" stroke-dasharray="2 3"/><circle cx="122" cy="188" r="10" fill="none" stroke="#c9463d" stroke-width="1" stroke-dasharray="2 2"/><line x1="117.5" y1="183.5" x2="126.5" y2="192.5" stroke="#c9463d" stroke-width="1.8"/><line x1="117.5" y1="192.5" x2="126.5" y2="183.5" stroke="#c9463d" stroke-width="1.8"/><line x1="85" y1="226" x2="112" y2="226" stroke="#8a9098" stroke-width="1" stroke-dasharray="2 3"/><circle cx="122" cy="226" r="10" fill="none" stroke="#c9463d" stroke-width="1" stroke-dasharray="2 2"/><line x1="117.5" y1="221.5" x2="126.5" y2="230.5" stroke="#c9463d" stroke-width="1.8"/><line x1="117.5" y1="230.5" x2="126.5" y2="221.5" stroke="#c9463d" stroke-width="1.8"/><line x1="195" y1="188" x2="222" y2="188" stroke="#8a9098" stroke-width="1" stroke-dasharray="2 3"/><circle cx="232" cy="188" r="10" fill="none" stroke="#c9463d" stroke-width="1" stroke-dasharray="2 2"/><line x1="227.5" y1="183.5" x2="236.5" y2="192.5" stroke="#c9463d" stroke-width="1.8"/><line x1="227.5" y1="192.5" x2="236.5" y2="183.5" stroke="#c9463d" stroke-width="1.8"/><line x1="195" y1="226" x2="222" y2="226" stroke="#8a9098" stroke-width="1" stroke-dasharray="2 3"/><circle cx="232" cy="226" r="10" fill="none" stroke="#c9463d" stroke-width="1" stroke-dasharray="2 2"/><line x1="227.5" y1="221.5" x2="236.5" y2="230.5" stroke="#c9463d" stroke-width="1.8"/><line x1="227.5" y1="230.5" x2="236.5" y2="221.5" stroke="#c9463d" stroke-width="1.8"/><line x1="305" y1="36" x2="359" y2="36" stroke="#8a9098" stroke-width="1.2" marker-end="url(#ah-G)"/><rect x="361" y="25" width="28" height="22" rx="4" fill="#f3f4f6" stroke="#c8ccd2"/><text x="375" y="40.5" text-anchor="middle" font-size="11.5" font-style="italic" fill="#4b5563">a₁</text><line x1="305" y1="74" x2="359" y2="74" stroke="#8a9098" stroke-width="1.2" marker-end="url(#ah-G)"/><rect x="361" y="63" width="28" height="22" rx="4" fill="#f3f4f6" stroke="#c8ccd2"/><text x="375" y="78.5" text-anchor="middle" font-size="11.5" font-style="italic" fill="#4b5563">a₁</text><line x1="305" y1="112" x2="359" y2="112" stroke="#8a9098" stroke-width="1.2" marker-end="url(#ah-G)"/><rect x="361" y="101" width="28" height="22" rx="4" fill="#f3f4f6" stroke="#c8ccd2"/><text x="375" y="116.5" text-anchor="middle" font-size="11.5" font-style="italic" fill="#4b5563">a₁</text><line x1="305" y1="150" x2="359" y2="150" stroke="#8a9098" stroke-width="1.2" marker-end="url(#ah-G)"/><rect x="361" y="139" width="28" height="22" rx="4" fill="#f3f4f6" stroke="#c8ccd2"/><text x="375" y="154.5" text-anchor="middle" font-size="11.5" font-style="italic" fill="#4b5563">a₂</text><line x1="305" y1="188" x2="359" y2="188" stroke="#1e8a86" stroke-width="1.2" marker-end="url(#ah-S)"/><rect x="361" y="177" width="28" height="22" rx="4" fill="#bfe6e0" stroke="#1e8a86"/><text x="372" y="192.5" text-anchor="middle" font-size="11.5" font-style="italic" fill="#1e8a86">a</text><polygon points="381.0,181.0 382.1,183.5 384.8,183.8 382.7,185.6 383.4,188.2 381.0,186.8 378.6,188.2 379.3,185.6 377.2,183.8 379.9,183.5" fill="#1e8a86"/><line x1="305" y1="226" x2="359" y2="226" stroke="#8a9098" stroke-width="1.2" marker-end="url(#ah-G)"/><rect x="361" y="215" width="28" height="22" rx="4" fill="#f3f4f6" stroke="#c8ccd2"/><text x="375" y="230.5" text-anchor="middle" font-size="11.5" font-style="italic" fill="#4b5563">a₂</text><text x="70" y="256" text-anchor="middle" font-size="12" font-style="italic" fill="#6b7280">R=6</text><text x="180" y="256" text-anchor="middle" font-size="12" font-style="italic" fill="#6b7280">R=4</text><text x="290" y="256" text-anchor="middle" font-size="12" font-style="italic" fill="#c9463d">R=2</text><text x="361" y="256" text-anchor="middle" font-size="12" font-style="italic" fill="#c9463d">a</text><polygon points="369.0,246.0 370.1,248.5 372.8,248.8 370.7,250.6 371.4,253.2 369.0,251.8 366.6,253.2 367.3,250.6 365.2,248.8 367.9,248.5" fill="#c9463d"/><text x="377" y="256" font-size="12" font-style="italic" fill="#c9463d">× 1</text><text x="70" y="282" text-anchor="middle" font-size="12.5" fill="#6b7280">initial population</text><text x="180" y="282" text-anchor="middle" font-size="12.5" fill="#6b7280">resampling 1</text><text x="290" y="282" text-anchor="middle" font-size="12.5" fill="#6b7280">resampling 2</text><text x="375" y="282" text-anchor="middle" font-size="12.5" fill="#6b7280">answers</text><line x1="500" y1="20" x2="500" y2="320" stroke="#c8ccd2" stroke-width="1" stroke-dasharray="4 4"/><path d="M572,20 L566,20 L566,52 L572,52" fill="none" stroke="#6b7280" stroke-width="1"/><text x="562" y="40" text-anchor="end" font-size="11" fill="#6b7280">chop</text><path d="M572,58 L566,58 L566,166 L572,166" fill="none" stroke="#6b7280" stroke-width="1"/><text x="562" y="116" text-anchor="end" font-size="11" fill="#6b7280">keep</text><path d="M572,172 L566,172 L566,242 L572,242" fill="none" stroke="#6b7280" stroke-width="1"/><text x="562" y="211" text-anchor="end" font-size="11" fill="#6b7280">thin</text><line x1="615" y1="36" x2="695" y2="36" stroke="#3f6fd0" stroke-width="1.3" stroke-dasharray="5 4" marker-end="url(#ah-A)"/><line x1="615" y1="36" x2="695" y2="74" stroke="#3f6fd0" stroke-width="1.3" stroke-dasharray="5 4" marker-end="url(#ah-A)"/><line x1="615" y1="74" x2="695" y2="112" stroke="#d98a3a" stroke-width="1.3" stroke-dasharray="5 4" marker-end="url(#ah-B)"/><line x1="615" y1="112" x2="695" y2="150" stroke="#c9b23a" stroke-width="1.3" stroke-dasharray="5 4" marker-end="url(#ah-C)"/><line x1="615" y1="150" x2="695" y2="188" stroke="#7b8290" stroke-width="1.3" stroke-dasharray="5 4" marker-end="url(#ah-D)"/><line x1="615" y1="226" x2="695" y2="226" stroke="#1e8a86" stroke-width="1.3" stroke-dasharray="5 4" marker-end="url(#ah-S)"/><line x1="725" y1="36" x2="805" y2="36" stroke="#3f6fd0" stroke-width="1.3" stroke-dasharray="5 4" marker-end="url(#ah-A)"/><line x1="725" y1="74" x2="805" y2="74" stroke="#3f6fd0" stroke-width="1.3" stroke-dasharray="5 4" marker-end="url(#ah-A)"/><line x1="725" y1="112" x2="805" y2="112" stroke="#d98a3a" stroke-width="1.3" stroke-dasharray="5 4" marker-end="url(#ah-B)"/><line x1="725" y1="112" x2="805" y2="150" stroke="#d98a3a" stroke-width="1.3" stroke-dasharray="5 4" marker-end="url(#ah-B)"/><line x1="725" y1="150" x2="805" y2="188" stroke="#c9b23a" stroke-width="1.3" stroke-dasharray="5 4" marker-end="url(#ah-C)"/><line x1="725" y1="226" x2="805" y2="226" stroke="#1e8a86" stroke-width="1.3" stroke-dasharray="5 4" marker-end="url(#ah-S)"/><circle cx="600" cy="36" r="13" fill="#9dbcf0" stroke="#3f6fd0" stroke-width="1.3"/><text x="600" y="40.5" text-anchor="middle" font-size="12" fill="#2b2f36">A</text><circle cx="600" cy="74" r="13" fill="#f6c48a" stroke="#d98a3a" stroke-width="1.3"/><text x="600" y="78.5" text-anchor="middle" font-size="12" fill="#2b2f36">B</text><circle cx="600" cy="112" r="13" fill="#f7e39a" stroke="#c9b23a" stroke-width="1.3"/><text x="600" y="116.5" text-anchor="middle" font-size="12" fill="#2b2f36">C</text><circle cx="600" cy="150" r="13" fill="#d5d8de" stroke="#7b8290" stroke-width="1.3"/><text x="600" y="154.5" text-anchor="middle" font-size="12" fill="#2b2f36">D</text><circle cx="600" cy="188" r="13" fill="#eceef1" stroke="#b0b6c0" stroke-width="1.3"/><text x="600" y="192.5" text-anchor="middle" font-size="12" fill="#2b2f36">E</text><circle cx="600" cy="226" r="13" fill="#bfe6e0" stroke="#1e8a86" stroke-width="1.3"/><circle cx="600" cy="226" r="17" fill="none" stroke="#1e8a86" stroke-width="1.6"/><polygon points="600.0,219.5 601.7,223.6 606.2,224.0 602.8,226.9 603.8,231.3 600.0,228.9 596.2,231.3 597.2,226.9 593.8,224.0 598.3,223.6" fill="#1e5f5c"/><circle cx="710" cy="36" r="13" fill="#9dbcf0" stroke="#3f6fd0" stroke-width="1.3"/><text x="710" y="40.5" text-anchor="middle" font-size="12" fill="#2b2f36">A</text><circle cx="710" cy="74" r="13" fill="#9dbcf0" stroke="#3f6fd0" stroke-width="1.3"/><text x="710" y="78.5" text-anchor="middle" font-size="12" fill="#2b2f36">A</text><circle cx="710" cy="112" r="13" fill="#f6c48a" stroke="#d98a3a" stroke-width="1.3"/><text x="710" y="116.5" text-anchor="middle" font-size="12" fill="#2b2f36">B</text><circle cx="710" cy="150" r="13" fill="#f7e39a" stroke="#c9b23a" stroke-width="1.3"/><text x="710" y="154.5" text-anchor="middle" font-size="12" fill="#2b2f36">C</text><circle cx="710" cy="188" r="13" fill="#d5d8de" stroke="#7b8290" stroke-width="1.3"/><text x="710" y="192.5" text-anchor="middle" font-size="12" fill="#2b2f36">D</text><circle cx="710" cy="226" r="13" fill="#bfe6e0" stroke="#1e8a86" stroke-width="1.3"/><circle cx="710" cy="226" r="17" fill="none" stroke="#1e8a86" stroke-width="1.6"/><polygon points="710.0,219.5 711.7,223.6 716.2,224.0 712.8,226.9 713.8,231.3 710.0,228.9 706.2,231.3 707.2,226.9 703.8,224.0 708.3,223.6" fill="#1e5f5c"/><circle cx="820" cy="36" r="13" fill="#9dbcf0" stroke="#3f6fd0" stroke-width="1.3"/><text x="820" y="40.5" text-anchor="middle" font-size="12" fill="#2b2f36">A</text><circle cx="820" cy="74" r="13" fill="#9dbcf0" stroke="#3f6fd0" stroke-width="1.3"/><text x="820" y="78.5" text-anchor="middle" font-size="12" fill="#2b2f36">A</text><circle cx="820" cy="112" r="13" fill="#f6c48a" stroke="#d98a3a" stroke-width="1.3"/><text x="820" y="116.5" text-anchor="middle" font-size="12" fill="#2b2f36">B</text><circle cx="820" cy="150" r="13" fill="#f6c48a" stroke="#d98a3a" stroke-width="1.3"/><text x="820" y="154.5" text-anchor="middle" font-size="12" fill="#2b2f36">B</text><circle cx="820" cy="188" r="13" fill="#f7e39a" stroke="#c9b23a" stroke-width="1.3"/><text x="820" y="192.5" text-anchor="middle" font-size="12" fill="#2b2f36">C</text><circle cx="820" cy="226" r="13" fill="#bfe6e0" stroke="#1e8a86" stroke-width="1.3"/><circle cx="820" cy="226" r="17" fill="none" stroke="#1e8a86" stroke-width="1.6"/><polygon points="820.0,219.5 821.7,223.6 826.2,224.0 822.8,226.9 823.8,231.3 820.0,228.9 816.2,231.3 817.2,226.9 813.8,224.0 818.3,223.6" fill="#1e5f5c"/><line x1="615" y1="188" x2="642" y2="188" stroke="#8a9098" stroke-width="1" stroke-dasharray="2 3"/><circle cx="652" cy="188" r="10" fill="none" stroke="#c9463d" stroke-width="1" stroke-dasharray="2 2"/><line x1="647.5" y1="183.5" x2="656.5" y2="192.5" stroke="#c9463d" stroke-width="1.8"/><line x1="647.5" y1="192.5" x2="656.5" y2="183.5" stroke="#c9463d" stroke-width="1.8"/><line x1="725" y1="188" x2="752" y2="188" stroke="#8a9098" stroke-width="1" stroke-dasharray="2 3"/><circle cx="762" cy="188" r="10" fill="none" stroke="#c9463d" stroke-width="1" stroke-dasharray="2 2"/><line x1="757.5" y1="183.5" x2="766.5" y2="192.5" stroke="#c9463d" stroke-width="1.8"/><line x1="757.5" y1="192.5" x2="766.5" y2="183.5" stroke="#c9463d" stroke-width="1.8"/><line x1="835" y1="36" x2="889" y2="36" stroke="#8a9098" stroke-width="1.2" marker-end="url(#ah-G)"/><rect x="891" y="25" width="28" height="22" rx="4" fill="#f3f4f6" stroke="#c8ccd2"/><text x="905" y="40.5" text-anchor="middle" font-size="11.5" font-style="italic" fill="#4b5563">a₁</text><line x1="835" y1="74" x2="889" y2="74" stroke="#1e8a86" stroke-width="1.2" marker-end="url(#ah-S)"/><rect x="891" y="63" width="28" height="22" rx="4" fill="#bfe6e0" stroke="#1e8a86"/><text x="902" y="78.5" text-anchor="middle" font-size="11.5" font-style="italic" fill="#1e8a86">a</text><polygon points="911.0,67.0 912.1,69.5 914.8,69.8 912.7,71.6 913.4,74.2 911.0,72.8 908.6,74.2 909.3,71.6 907.2,69.8 909.9,69.5" fill="#1e8a86"/><line x1="835" y1="112" x2="889" y2="112" stroke="#8a9098" stroke-width="1.2" marker-end="url(#ah-G)"/><rect x="891" y="101" width="28" height="22" rx="4" fill="#f3f4f6" stroke="#c8ccd2"/><text x="905" y="116.5" text-anchor="middle" font-size="11.5" font-style="italic" fill="#4b5563">a₂</text><line x1="835" y1="150" x2="889" y2="150" stroke="#8a9098" stroke-width="1.2" marker-end="url(#ah-G)"/><rect x="891" y="139" width="28" height="22" rx="4" fill="#f3f4f6" stroke="#c8ccd2"/><text x="905" y="154.5" text-anchor="middle" font-size="11.5" font-style="italic" fill="#4b5563">a₃</text><line x1="835" y1="188" x2="889" y2="188" stroke="#1e8a86" stroke-width="1.2" marker-end="url(#ah-S)"/><rect x="891" y="177" width="28" height="22" rx="4" fill="#bfe6e0" stroke="#1e8a86"/><text x="902" y="192.5" text-anchor="middle" font-size="11.5" font-style="italic" fill="#1e8a86">a</text><polygon points="911.0,181.0 912.1,183.5 914.8,183.8 912.7,185.6 913.4,188.2 911.0,186.8 908.6,188.2 909.3,185.6 907.2,183.8 909.9,183.5" fill="#1e8a86"/><line x1="835" y1="226" x2="889" y2="226" stroke="#1e8a86" stroke-width="1.2" marker-end="url(#ah-S)"/><rect x="891" y="215" width="28" height="22" rx="4" fill="#bfe6e0" stroke="#1e8a86"/><text x="902" y="230.5" text-anchor="middle" font-size="11.5" font-style="italic" fill="#1e8a86">a</text><polygon points="911.0,219.0 912.1,221.5 914.8,221.8 912.7,223.6 913.4,226.2 911.0,224.8 908.6,226.2 909.3,223.6 907.2,221.8 909.9,221.5" fill="#1e8a86"/><text x="600" y="256" text-anchor="middle" font-size="12" font-style="italic" fill="#6b7280">R=6</text><text x="710" y="256" text-anchor="middle" font-size="12" font-style="italic" fill="#6b7280">R=5</text><text x="820" y="256" text-anchor="middle" font-size="12" font-style="italic" fill="#1e8a86">R=4</text><text x="891" y="256" text-anchor="middle" font-size="12" font-style="italic" fill="#1e8a86">a</text><polygon points="899.0,246.0 900.1,248.5 902.8,248.8 900.7,250.6 901.4,253.2 899.0,251.8 896.6,253.2 897.3,250.6 895.2,248.8 897.9,248.5" fill="#1e8a86"/><text x="907" y="256" font-size="12" font-style="italic" fill="#1e8a86">× 3</text><text x="600" y="282" text-anchor="middle" font-size="12.5" fill="#6b7280">initial population</text><text x="710" y="282" text-anchor="middle" font-size="12.5" fill="#6b7280">resampling 1</text><text x="820" y="282" text-anchor="middle" font-size="12.5" fill="#6b7280">resampling 2</text><text x="905" y="282" text-anchor="middle" font-size="12.5" fill="#6b7280">answers</text></svg>
